<svg width="105" height="104" viewBox="0 0 105 104" fill="none" xmlns="http://www.w3.org/2000/svg">
<path fill-rule="evenodd" clip-rule="evenodd" d="M48.5 8.18217C41.2094 8.84767 34.1771 11.3246 28.0549 15.4153C20.8192 20.2501 15.1796 27.122 11.8493 35.1619C8.51907 43.2019 7.64772 52.0488 9.34547 60.584C11.0432 69.1191 15.2338 76.9592 21.3873 83.1127C27.5408 89.2662 35.3809 93.4568 43.916 95.1545C52.4512 96.8523 61.2981 95.981 69.3381 92.6507C77.378 89.3204 84.2499 83.6809 89.0847 76.4451C93.1754 70.3229 95.6524 63.2907 96.3179 56H48.5V8.18217ZM23.6104 8.76358C32.1617 3.04975 42.2154 0 52.5 0H56.5V48H104.5V52C104.5 62.2846 101.45 72.3383 95.7364 80.8896C90.0226 89.441 81.9013 96.106 72.3996 100.042C62.8978 103.977 52.4423 105.007 42.3553 103.001C32.2683 100.994 23.0028 96.0419 15.7305 88.7696C8.45814 81.4972 3.50562 72.2317 1.49919 62.1447C-0.507243 52.0577 0.522531 41.6022 4.45829 32.1005C8.39404 22.5987 15.059 14.4774 23.6104 8.76358Z" fill="#00FF80"/>
</svg>
